<svg xmlns="http://www.w3.org/2000/svg" width="43.438" height="42.365" viewBox="0 0 11.493 11.209"><path d="M5.746 0A5.75 5.75 0 0 0 0 5.747c0 2.54 1.646 4.693 3.93 5.452.288.053.392-.125.392-.277l-.008-.977c-1.598.347-1.936-.77-1.936-.77-.26-.664-.638-.84-.638-.84-.522-.356.04-.35.04-.35.577.04.88.592.88.592.513.878 1.345.624 1.672.477.052-.37.2-.624.365-.768C3.42 8.14 2.08 7.648 2.08 5.446a2.22 2.22 0 0 1 .592-1.542c-.06-.145-.256-.73.056-1.52 0 0 .482-.155 1.58.59.458-.128.95-.19 1.44-.194a5.49 5.49 0 0 1 1.439.194c1.097-.744 1.58-.59 1.58-.59.314.79.116 1.375.057 1.52.368.4.59.915.59 1.542 0 2.208-1.344 2.694-2.624 2.836.206.177.4.528.4 1.064l-.007 1.577c0 .154.104.333.395.277A5.75 5.75 0 0 0 5.746 0" fill="#fff" fill-rule="evenodd"/></svg>
